# xmcd CD database file
#
# Track frame offsets:
#	150
#	10923
#	25666
#	42176
#	58782
#	77293
#	93862
#	108974
#	125551
#	145632
#	159203
#	176285
#	196463
#	212723
#	229382
#	246615
#	263518
#	279354
#
# Disc length: 3894 seconds
#
# Revision: 0
# Processed by: cddbd v1.4PL0 Copyright (c) Steve Scherf et al.
# Submitted via: CDex 1.50
#
DISCID=e50f3412
DTITLE=Various Artist - Top Country Hits DEC 1997
DYEAR=1997
DGENRE=Country
TTITLE0=Garth Brooks_Long Neck Bottle
TTITLE1=Brooks and Dunn_He's Got You
TTITLE2=Martina McBride_A Broken Wing
TTITLE3=Michael Peterson_From Here To Eternity
TTITLE4=Toby Kieth_I'm So Happy I Can't Stop Crying
TTITLE5=Kinleys_Please
TTITLE6=Diamond Rio_Imagine That
TTITLE7=Patty Loveless_You Don't Seam To Miss Me
TTITLE8=Sammy Kershaw_Love Of My Life
TTITLE9=Wynonna_When Love Starts Talkin'
TTITLE10=Lonestar_You Walked In
TTITLE11=Alan Jackson_Between The Devil And Me
TTITLE12=John Michael Montgomery_Angel In My Eyes
TTITLE13=LeAnn Rimes_On The Side Of Angels
TTITLE14=Alabama_Of Course I'm Alright
TTITLE15=Tracy Lawrence_The Coast Is Clear
TTITLE16=Ty Herndon_I Have To Surrender
TTITLE17=David Lee Murphy_All Lit Up In Love
EXTD=YEAR: 1997
EXTT0=
EXTT1=
EXTT2=
EXTT3=
EXTT4=
EXTT5=
EXTT6=
EXTT7=
EXTT8=
EXTT9=
EXTT10=
EXTT11=
EXTT12=
EXTT13=
EXTT14=
EXTT15=
EXTT16=
EXTT17=
PLAYORDER=
